<svg width="44" height="26" viewBox="0 0 44 26" fill="none" xmlns="http://www.w3.org/2000/svg">
<path fill-rule="evenodd" clip-rule="evenodd" d="M31.0006 26L13.0006 26L13 26C5.82034 26 4.14528e-05 20.1797 4.08252e-05 13C4.01975e-05 5.8203 5.82034 3.33783e-06 13 2.71016e-06L13.0006 2.71011e-06L31.0006 1.1365e-06C38.1803 5.08827e-07 44.0006 5.8203 44.0006 13C44.0006 20.1797 38.1803 26 31.0006 26ZM13.0006 3C7.47776 3 3.00061 7.47716 3.00061 13C3.00061 18.5229 7.47776 23 13.0006 23C18.5235 23 23.0006 18.5228 23.0006 13C23.0006 7.47715 18.5235 3 13.0006 3Z" fill="#BABABA"/>
</svg>
