<?xml version="1.0" encoding="UTF-8"?>
<svg id="_로고" data-name="로고" xmlns="http://www.w3.org/2000/svg" xmlns:xlink="http://www.w3.org/1999/xlink" viewBox="0 0 320.35 229.9">
  <defs>
    <style>
      .cls-1 {
        fill: url(#_무제_그라디언트_27-2);
      }

      .cls-2 {
        fill: url(#_무제_그라디언트_27);
      }
    </style>
    <linearGradient id="_무제_그라디언트_27" data-name="무제 그라디언트 27" x1="19.33" y1="64.26" x2="286.22" y2="217.53" gradientUnits="userSpaceOnUse">
      <stop offset="0" stop-color="#b21a72"/>
      <stop offset=".5" stop-color="#4e3a8b"/>
      <stop offset="1" stop-color="#2a4692"/>
    </linearGradient>
    <linearGradient id="_무제_그라디언트_27-2" data-name="무제 그라디언트 27" x1="71.72" y1="-26.97" x2="338.61" y2="126.31" xlink:href="#_무제_그라디언트_27"/>
  </defs>
  <path class="cls-2" d="M270.86,144.72c-8.98,12.76-23.8,21.1-40.59,21.1-27.4,0-49.61-22.21-49.61-49.61V56.08h0s0-10.73,0-10.73h-28.35l-42.52,60.72-42.52-60.72h-28.35V187.08h28.35V94.77l42.52,60.72,42.52-60.72v92.31h28.35v-10.73c13.48,11.13,30.76,17.82,49.61,17.82,26.38,0,49.67-13.11,63.78-33.16l-23.19-16.29Z"/>
  <path class="cls-1" d="M230.27,66.61c16.78,0,31.61,8.34,40.59,21.1l23.19-16.29c-14.11-20.05-37.4-33.16-63.78-33.16-12.76,0-24.8,3.07-35.43,8.51v34.74c9-9.19,21.55-14.9,35.43-14.9Z"/>
</svg>