<svg width="40" height="40" viewBox="0 0 40 40" fill="none" xmlns="http://www.w3.org/2000/svg">
<g clip-path="url(#clip0_101_3016)">
<path d="M30 20C30 21.9778 29.4135 23.9112 28.3147 25.5557C27.2159 27.2002 25.6541 28.4819 23.8268 29.2388C21.9996 29.9957 19.9889 30.1937 18.0491 29.8079C16.1093 29.422 14.3275 28.4696 12.9289 27.0711C11.5304 25.6725 10.578 23.8907 10.1922 21.9509C9.8063 20.0111 10.0043 18.0004 10.7612 16.1732C11.5181 14.3459 12.7998 12.7841 14.4443 11.6853C16.0888 10.5865 18.0222 10 20 10C22.6513 10.0029 25.1932 11.0574 27.0679 12.9321C28.9426 14.8068 29.9971 17.3487 30 20ZM21.6667 20C21.6667 19.558 21.4911 19.1341 21.1785 18.8215C20.866 18.5089 20.442 18.3333 20 18.3333H18.3333V20H20V25.8333H21.6667V20ZM20 14.1667C19.7528 14.1667 19.5111 14.24 19.3055 14.3773C19.1 14.5147 18.9398 14.7099 18.8452 14.9383C18.7505 15.1667 18.7258 15.4181 18.774 15.6605C18.8223 15.903 18.9413 16.1257 19.1161 16.3006C19.2909 16.4754 19.5137 16.5944 19.7561 16.6426C19.9986 16.6909 20.25 16.6661 20.4784 16.5715C20.7068 16.4769 20.902 16.3167 21.0393 16.1111C21.1767 15.9056 21.25 15.6639 21.25 15.4167C21.25 15.0851 21.1183 14.7672 20.8839 14.5328C20.6495 14.2984 20.3315 14.1667 20 14.1667Z" fill="black"/>
</g>
<defs>
<clipPath id="clip0_101_3016">
<rect width="20" height="20" fill="white" transform="translate(10 10)"/>
</clipPath>
</defs>
</svg>
