<svg width="40" height="40" viewBox="0 0 40 40" fill="none" xmlns="http://www.w3.org/2000/svg">
<mask id="path-1-inside-1_70_1372" fill="white">
<path d="M10 11C10 10.4477 10.4477 10 11 10H29C29.5523 10 30 10.4477 30 11V25C30 27.7614 27.7614 30 25 30H11C10.4477 30 10 29.5523 10 29V11Z"/>
</mask>
<path d="M10 11C10 10.4477 10.4477 10 11 10H29C29.5523 10 30 10.4477 30 11V25C30 27.7614 27.7614 30 25 30H11C10.4477 30 10 29.5523 10 29V11Z" stroke="#0E0F0E" stroke-width="4" mask="url(#path-1-inside-1_70_1372)"/>
<circle cx="20" cy="17" r="3" fill="#0E0F0E"/>
<ellipse cx="20" cy="23" rx="5" ry="2" fill="#0E0F0E"/>
</svg>
