<svg width="40" height="40" viewBox="0 0 40 40" fill="none" xmlns="http://www.w3.org/2000/svg">
<mask id="path-1-inside-1_70_1377" fill="white">
<path fill-rule="evenodd" clip-rule="evenodd" d="M20 10L30 20V21V25C30 27.7614 27.7614 30 25 30H22V23H18V30H11C10.4477 30 10 29.5523 10 29V21V20L20 10Z"/>
</mask>
<path d="M30 20H32V19.1716L31.4142 18.5858L30 20ZM20 10L21.4142 8.58579L20 7.17157L18.5858 8.58579L20 10ZM22 30H20V32H22V30ZM22 23H24V21H22V23ZM18 23V21H16V23H18ZM18 30V32H20V30H18ZM10 20L8.58579 18.5858L8 19.1716V20H10ZM31.4142 18.5858L21.4142 8.58579L18.5858 11.4142L28.5858 21.4142L31.4142 18.5858ZM32 21V20H28V21H32ZM32 25V21H28V25H32ZM25 32C28.866 32 32 28.866 32 25H28C28 26.6569 26.6569 28 25 28V32ZM22 32H25V28H22V32ZM20 23V30H24V23H20ZM18 25H22V21H18V25ZM20 30V23H16V30H20ZM11 32H18V28H11V32ZM8 29C8 30.6569 9.34315 32 11 32V28C11.5523 28 12 28.4477 12 29H8ZM8 21V29H12V21H8ZM8 20V21H12V20H8ZM18.5858 8.58579L8.58579 18.5858L11.4142 21.4142L21.4142 11.4142L18.5858 8.58579Z" fill="#0E0F0E" mask="url(#path-1-inside-1_70_1377)"/>
</svg>
