<svg width="40" height="40" viewBox="0 0 40 40" fill="none" xmlns="http://www.w3.org/2000/svg">
<path d="M28 16.9999C28.0007 17.1762 27.9548 17.3494 27.867 17.5022C27.7792 17.655 27.6526 17.7818 27.5 17.8699L20.5 21.8699C20.348 21.9577 20.1755 22.0039 20 22.0039C19.8245 22.0039 19.652 21.9577 19.5 21.8699L12.5 17.8699C12.3461 17.7827 12.2181 17.6562 12.129 17.5034C12.04 17.3506 11.993 17.1768 11.993 16.9999C11.993 16.8231 12.04 16.6493 12.129 16.4965C12.2181 16.3436 12.3461 16.2172 12.5 16.1299L19.5 12.1299C19.652 12.0422 19.8245 11.996 20 11.996C20.1755 11.996 20.348 12.0422 20.5 12.1299L27.5 16.1299C27.6526 16.2181 27.7792 16.3449 27.867 16.4977C27.9548 16.6505 28.0007 16.8237 28 16.9999Z" fill="#0E0F0E"/>
<path d="M27.5 22.13L25.79 21.13L21.49 23.59C21.0377 23.8544 20.5239 23.9958 20 24C19.4812 24.0002 18.9713 23.8658 18.52 23.61L14.21 21.15L12.5 22.15C12.3461 22.2372 12.2181 22.3637 12.129 22.5165C12.04 22.6694 11.993 22.8431 11.993 23.02C11.993 23.1969 12.04 23.3706 12.129 23.5235C12.2181 23.6763 12.3461 23.8028 12.5 23.89L19.5 27.89C19.652 27.9778 19.8245 28.024 20 28.024C20.1755 28.024 20.348 27.9778 20.5 27.89L27.5 23.89C27.6539 23.8028 27.7819 23.6763 27.871 23.5235C27.96 23.3706 28.0069 23.1969 28.0069 23.02C28.0069 22.8431 27.96 22.6694 27.871 22.5165C27.7819 22.3637 27.6539 22.2372 27.5 22.15V22.13Z" fill="#0E0F0E"/>
</svg>
