<svg width="40" height="40" viewBox="0 0 40 40" fill="none" xmlns="http://www.w3.org/2000/svg">
<path d="M35 26.6668H33.3333V16.6668C33.3333 13.1306 31.9286 9.73922 29.4281 7.23874C26.9276 4.73825 23.5362 3.3335 20 3.3335C16.4638 3.3335 13.0724 4.73825 10.5719 7.23874C8.0714 9.73922 6.66665 13.1306 6.66665 16.6668V26.6668H4.99998C4.55795 26.6668 4.13403 26.8424 3.82147 27.155C3.50891 27.4675 3.33331 27.8915 3.33331 28.3335V35.0002C3.33331 35.4422 3.50891 35.8661 3.82147 36.1787C4.13403 36.4912 4.55795 36.6668 4.99998 36.6668H35C35.442 36.6668 35.8659 36.4912 36.1785 36.1787C36.4911 35.8661 36.6666 35.4422 36.6666 35.0002V28.3335C36.6666 27.8915 36.4911 27.4675 36.1785 27.155C35.8659 26.8424 35.442 26.6668 35 26.6668ZM20 10.0002V13.3335C19.1159 13.3335 18.2681 13.6847 17.643 14.3098C17.0178 14.9349 16.6666 15.7828 16.6666 16.6668H13.3333C13.3333 14.8987 14.0357 13.203 15.2859 11.9528C16.5362 10.7025 18.2319 10.0002 20 10.0002V10.0002ZM33.3333 33.3335H6.66665V30.0002H33.3333V33.3335Z" fill="black"/>
</svg>
