<svg width="40" height="40" viewBox="0 0 40 40" fill="none" xmlns="http://www.w3.org/2000/svg">
<circle cx="20" cy="20" r="3" fill="#0E0F0E"/>
<path fill-rule="evenodd" clip-rule="evenodd" d="M20 7C20.5523 7 21 7.44772 21 8V10.0494C25.7244 10.5184 29.4816 14.2756 29.9506 19H32C32.5523 19 33 19.4477 33 20C33 20.5523 32.5523 21 32 21H29.9506C29.4816 25.7244 25.7244 29.4816 21 29.9506V32C21 32.5523 20.5523 33 20 33C19.4477 33 19 32.5523 19 32V29.9506C14.2756 29.4816 10.5184 25.7244 10.0494 21H8C7.44772 21 7 20.5523 7 20C7 19.4477 7.44772 19 8 19H10.0494C10.5184 14.2756 14.2756 10.5184 19 10.0494V8C19 7.44772 19.4477 7 20 7ZM20 28C24.4183 28 28 24.4183 28 20C28 15.5817 24.4183 12 20 12C15.5817 12 12 15.5817 12 20C12 24.4183 15.5817 28 20 28Z" fill="#0E0F0E"/>
</svg>
